<?xml version="1.0" encoding="UTF-8"?>
<svg width="19px" height="26px" viewBox="0 0 19 26" version="1.1" xmlns="http://www.w3.org/2000/svg" xmlns:xlink="http://www.w3.org/1999/xlink">
    <!-- Generator: sketchtool 52.4 (67378) - http://www.bohemiancoding.com/sketch -->
    <title>9E3A2BD8-101E-4383-8C6A-3D23520BB296</title>
    <desc>Created with sketchtool.</desc>
    <g id="Page-1" stroke="none" stroke-width="1" fill="none" fill-rule="evenodd">
        <g id="contract-copy" transform="translate(-191.000000, -648.000000)" fill="#D02139">
            <g id="icon/view-copy-7" transform="translate(184.000000, 645.000000)">
                <path d="M17.7391304,3 L26,11.125 L26,27.375 C26,27.8320335 25.8408078,28.2171208 25.5224185,28.5302734 C25.2040292,28.843426 24.8125023,29 24.3478261,29 L8.65217391,29 C8.18749768,29 7.79597079,28.843426 7.47758152,28.5302734 C7.15919225,28.2171208 7,27.8320335 7,27.375 L7,4.625 C7,4.16796646 7.15919225,3.78287917 7.47758152,3.46972656 C7.79597079,3.15657396 8.18749768,3 8.65217391,3 L17.7391304,3 Z M24.3478261,11.8105469 L17.0679348,4.625 L16.9130435,4.625 L16.9130435,10.9375 C16.9130435,11.4897847 17.3607587,11.9375 17.9130435,11.9375 L24.3478261,11.9375 L24.3478261,11.8105469 Z M8.65217391,27.375 L24.3478261,27.375 L24.3478261,13.5625 L17.2608696,13.5625 C16.1563001,13.5625 15.2608696,12.6670695 15.2608696,11.5625 L15.2608696,4.625 L8.65217391,4.625 L8.65217391,27.375 Z" id="doc---simple-line-icons"></path>
            </g>
        </g>
    </g>
</svg>