<?xml version="1.0" encoding="UTF-8"?>
<svg width="15px" height="18px" viewBox="0 0 15 18" version="1.1" xmlns="http://www.w3.org/2000/svg" xmlns:xlink="http://www.w3.org/1999/xlink">
    <!-- Generator: sketchtool 52.4 (67378) - http://www.bohemiancoding.com/sketch -->
    <title>3C0C8D4F-89C2-4AF8-BD06-3B8EE9497463</title>
    <desc>Created with sketchtool.</desc>
    <g id="Page-1" stroke="none" stroke-width="1" fill="none" fill-rule="evenodd">
        <g id="02-Onboarding---Upload-2-of-3-Writer" transform="translate(-868.000000, -644.000000)" fill="#5D5D5D" stroke="#5D5D5D" stroke-width="0.3">
            <g id="Ui/file-upload-Copy-6" transform="translate(222.000000, 637.000000)">
                <g id="icon/spin-black-copy" transform="translate(637.000000, 0.000000)">
                    <path d="M22.501199,10.4951267 C22.6362916,10.4951267 22.7531969,10.5445089 22.8519185,10.6432749 C22.95064,10.7420408 23,10.8589987 23,10.994152 C23,11.1293054 22.95064,11.2462633 22.8519185,11.3450292 C22.7531969,11.4437952 22.6362916,11.4931774 22.501199,11.4931774 L21.8153477,11.4931774 L20.646283,23.0331384 C20.6254995,23.3034451 20.51379,23.5321628 20.3111511,23.7192982 C20.1085122,23.9064337 19.8721037,24 19.6019185,24 L13.3980815,24 C13.1278963,24 12.8914878,23.9064337 12.6888489,23.7192982 C12.48621,23.5321628 12.3693047,23.3034451 12.3381295,23.0331384 L11.1846523,11.4931774 L10.498801,11.4931774 C10.3637084,11.4931774 10.2468031,11.4437952 10.1480815,11.3450292 C10.04936,11.2462633 10,11.1293054 10,10.994152 C10,10.8589987 10.04936,10.7420408 10.1480815,10.6432749 C10.2468031,10.5445089 10.3637084,10.4951267 10.498801,10.4951267 L14.0059952,10.4951267 L14.0059952,9.13840156 C14.0059952,8.81611275 14.1203026,8.54581006 14.3489209,8.32748538 C14.5775391,8.1091607 14.8477203,8 15.1594724,8 L17.8405276,8 C18.1522797,8 18.4224609,8.1091607 18.6510791,8.32748538 C18.8796974,8.54581006 18.9940048,8.81611275 18.9940048,9.13840156 L18.9940048,10.4951267 L22.501199,10.4951267 Z M15.0035971,9.13840156 L15.0035971,10.4951267 L17.9964029,10.4951267 L17.9964029,9.13840156 C17.9964029,9.09681591 17.9808155,9.06042901 17.9496403,9.02923977 C17.9184651,8.99805053 17.8820945,8.98245614 17.8405276,8.98245614 L15.1594724,8.98245614 C15.1179055,8.98245614 15.0815349,8.99805053 15.0503597,9.02923977 C15.0191845,9.06042901 15.0035971,9.09681591 15.0035971,9.13840156 Z M19.6642686,22.9395712 L20.8021583,11.4931774 L12.1978417,11.4931774 L13.3357314,22.9395712 C13.3357314,22.9499676 13.3435251,22.9629629 13.3591127,22.9785575 C13.3747003,22.9941521 13.3876898,23.0019493 13.3980815,23.0019493 L19.6019185,23.0019493 C19.6123102,23.0019493 19.6252997,22.9967512 19.6408873,22.9863548 C19.6564749,22.9759584 19.6642686,22.960364 19.6642686,22.9395712 Z" id="trash---simple-line-icons"></path>
                </g>
            </g>
        </g>
    </g>
</svg>