<?xml version="1.0" encoding="UTF-8"?>
<svg width="132px" height="132px" viewBox="0 0 132 132" version="1.1" xmlns="http://www.w3.org/2000/svg" xmlns:xlink="http://www.w3.org/1999/xlink">
    <!-- Generator: sketchtool 52.4 (67378) - http://www.bohemiancoding.com/sketch -->
    <title>14A74739-7452-42CF-A951-CEE2095B55C7</title>
    <desc>Created with sketchtool.</desc>
    <g id="Page-1" stroke="none" stroke-width="1" fill="none" fill-rule="evenodd" stroke-linecap="round" stroke-linejoin="round">
        <g id="slect-app-type-copy-6" transform="translate(-937.000000, -453.000000)" stroke="#FAAE00">
            <g id="Group-4" transform="translate(887.000000, 446.000000)">
                <g id="Representative-Icon" transform="translate(43.000000, 0.000000)">
                    <g transform="translate(9.475606, 9.475606)">
                        <path d="M127.131047,70.0646405 C123.867725,102.117853 96.7274658,127.131047 63.7299967,127.131047 C28.5331037,127.131047 0,98.6716571 0,63.5656929 C0,28.4590516 28.5331037,0 63.7299967,0 C93.1861184,0 117.974532,19.9319341 125.277543,47.0115592" id="Stroke-1" stroke-width="3.45600014"></path>
                        <path d="M63.1707067,79.7530173 C67.8036905,79.7530173 71.9940737,77.9401391 75.0152142,75.0152142" id="Stroke-3" stroke-width="3.45600014"></path>
                        <path d="M51.3261992,52.1158331 C54.3473397,49.1912351 58.537723,47.3780301 63.1707067,47.3780301" id="Stroke-5" stroke-width="3.45600014"></path>
                        <path d="M74.9528033,75.0152142 C77.9196964,72.084048 79.7530173,68.0528234 79.7530173,63.6014859 C79.7530173,54.6414022 72.3291703,47.3780301 63.1707067,47.3780301" id="Stroke-7" stroke-width="3.45600014"></path>
                        <path d="M52.178485,52.1158331 C49.2116526,55.0473311 47.3780301,59.0782239 47.3780301,63.5298932 C47.3780301,72.4896451 54.8020643,79.7530173 63.9603406,79.7530173" id="Stroke-9" stroke-width="3.45600014"></path>
                        <path d="M108.969469,108.179835 L75.0152142,75.0152142" id="Stroke-11" stroke-width="3.45600014"></path>
                        <path d="M52.1158331,52.1158331 L18.1615782,18.951212" id="Stroke-13" stroke-width="3.45600014"></path>
                        <path d="M63.7890049,79.7530173 L63.7890049,127.131047" id="Stroke-15" stroke-width="3.45600014"></path>
                        <path d="M63.7890049,0 L63.7890049,31.5853534" id="Stroke-17" stroke-width="3.45600014"></path>
                    </g>
                </g>
            </g>
        </g>
    </g>
</svg>