<?xml version="1.0" encoding="UTF-8"?>
<svg width="149px" height="108px" viewBox="0 0 149 108" version="1.1" xmlns="http://www.w3.org/2000/svg" xmlns:xlink="http://www.w3.org/1999/xlink">
    <!-- Generator: sketchtool 52.4 (67378) - http://www.bohemiancoding.com/sketch -->
    <title>ED869250-EF5F-4A24-8576-DFC06E505BE3</title>
    <desc>Created with sketchtool.</desc>
    <g id="Page-1" stroke="none" stroke-width="1" fill="none" fill-rule="evenodd" stroke-linecap="round" stroke-linejoin="round">
        <g id="slect-app-type-copy-6" transform="translate(-202.000000, -460.000000)" stroke="#A72E81">
            <g id="Group-2" transform="translate(161.000000, 446.000000)">
                <g id="Writer-Icon" transform="translate(43.000000, 0.000000)">
                    <g transform="translate(0.000000, 15.792677)">
                        <path d="M100.696644,68.0439875 C103.456706,69.7984586 104.271397,73.4580664 102.516915,76.2177707 C100.762433,78.9778159 97.1028015,79.7928422 94.3427389,78.0383711 C91.5830171,76.2839 90.7679856,72.6242922 92.5228087,69.864247 C94.27695,67.1042019 97.9365811,66.2895164 100.696644,68.0439875 Z" id="Stroke-1" stroke-width="3.45600014"></path>
                        <polygon id="Stroke-3" stroke-width="3.45600014" points="53.6951007 18.8189338 33.0170194 51.0932009 29.8326333 56.0640022 0 37.2450684 23.8624674 0"></polygon>
                        <path d="M144.502992,102.652398 L103.442032,76.5944819" id="Stroke-5" stroke-width="3.45600014"></path>
                        <polyline id="Stroke-7" stroke-width="3.45600014" points="132.765098 77.6837107 145.292625 104.231666 75.7189199 103.927015 33.164621 52.1158331"></polyline>
                        <polyline id="Stroke-9" stroke-width="3.45600014" points="51.3261992 24.4786489 115.390728 40.9051146 126.341413 63.9603406"></polyline>
                    </g>
                </g>
            </g>
        </g>
    </g>
</svg>