<?xml version="1.0" encoding="UTF-8"?>
<svg width="138px" height="138px" viewBox="0 0 138 138" version="1.1" xmlns="http://www.w3.org/2000/svg" xmlns:xlink="http://www.w3.org/1999/xlink">
    <!-- Generator: sketchtool 52.4 (67378) - http://www.bohemiancoding.com/sketch -->
    <title>1ABEAD5E-D58F-477C-86C1-B6E822FD56BC</title>
    <desc>Created with sketchtool.</desc>
    <g id="Page-1" stroke="none" stroke-width="1" fill="none" fill-rule="evenodd">
        <g id="Thank-you" transform="translate(-523.000000, -360.000000)" fill="#000000" stroke="#FFFFFF" stroke-width="0.5">
            <g id="1034133" transform="translate(523.000000, 360.000000)">
                <path d="M138.221405,52.7420735 C138.221003,52.7374141 138.220473,52.7339737 138.220944,52.7354167 C138.220953,52.7355091 138.220961,52.7356015 138.220969,52.7356939 L138.221405,52.7420735 Z M137.722591,52.7761973 C137.709723,52.6360617 137.681789,52.4978078 137.634188,52.3456132 C137.605822,52.2242118 137.566561,52.1050306 137.526641,52.009626 C137.467858,51.9007261 137.399588,51.7981956 137.311065,51.6879917 C137.229916,51.5705825 137.136641,51.4622572 137.039063,51.3705465 C137.006587,51.3420988 136.984503,51.315182 136.959626,51.2800632 C136.958606,51.2786453 136.958606,51.2786453 136.957648,51.277313 C136.950692,51.2676404 136.951577,51.2686858 136.958499,51.2739773 L114.84608,34.0940945 L114.749461,33.8966757 L114.749461,16.0908936 C114.749461,12.4180383 111.771971,9.44036801 108.099353,9.44036801 L83.1737918,9.44036801 L83.0204663,9.38783015 L73.0400487,1.63823079 C70.6644119,-0.212743596 67.3347795,-0.212743596 64.9587966,1.6385 L54.9768203,9.38784418 L54.8235129,9.44036801 L29.8979515,9.44036801 C26.2252392,9.44036801 23.2478437,12.4178634 23.2478437,16.0908936 L23.2478437,33.8966757 L23.1512343,34.0940872 L1.03955022,51.2750658 C1.04772539,51.2688072 1.04847332,51.2679242 1.04127267,51.2779161 C1.04045377,51.2790526 1.04045377,51.2790526 1.03959055,51.2802502 C1.01497453,51.3149638 0.993079597,51.34171 0.966687426,51.3648453 C0.862819583,51.4622572 0.769545095,51.5705825 0.676815807,51.7034356 C0.59933449,51.7988582 0.531011796,51.9013785 0.482086327,51.9905685 C0.43228173,52.105102 0.393243809,52.2236064 0.359887556,52.3650782 C0.317494711,52.4972662 0.289528586,52.6337515 0.277492617,52.7488578 C0.277492617,52.7951785 0.270455019,52.8302661 0.256821744,52.8759353 C0.254423383,52.8838035 0.254423383,52.8838035 0.252470951,52.8900744 C0.25055891,52.8962233 0.250094814,52.897495 0.249999998,52.8938796 L0.249980869,131.096382 C0.286937027,134.083489 1.31552882,135.935075 3.06774853,136.919582 C4.23825785,137.577248 5.37300612,137.750288 6.89795153,137.75 L131.099375,137.75 C131.101226,137.749997 131.101226,137.749997 131.103081,137.749993 C132.358592,137.747414 133.261324,137.641662 134.2831,137.230197 C136.426084,136.367226 137.710884,134.456365 137.75,131.099744 L137.750016,52.9026276 C137.749865,52.9057583 137.749161,52.9034555 137.746586,52.8949252 C137.744656,52.8885426 137.744656,52.8885426 137.74233,52.8806927 C137.731058,52.8417136 137.72482,52.8128599 137.722591,52.7761973 Z M0.249999998,52.8938796 C0.249951307,52.892023 0.25,52.8888777 0.25,52.8844423 L0.249999998,52.8938796 Z M137.750016,52.9026276 L137.750016,52.8964 C137.750048,52.8992911 137.750075,52.901381 137.750016,52.902621 Z M67.4638139,4.87429717 C68.3580393,4.16441767 69.6238184,4.16467927 70.515546,4.87333691 L76.3979729,9.44036801 L61.60025,9.44036801 L67.4638139,4.87429717 Z M7.3146527,133.202399 L67.4637224,86.4778831 C68.3583034,85.7716554 69.6206728,85.7716554 70.5136831,86.4766532 L131.258538,133.649829 L6.7386699,133.649829 L7.3146527,133.202399 Z M133.246218,130.004416 L73.0355381,83.2394279 C70.6614907,81.3910748 67.3355444,81.3910748 64.9612662,83.2396074 L4.34746637,130.317694 L4.34746637,55.8860262 L4.75080388,56.1992492 L42.4414206,85.4689568 C43.3366233,86.1631052 44.6248186,86.0001672 45.3188798,85.1049686 C46.0129955,84.2096997 45.8500641,82.9214013 44.9547682,82.2271804 L6.40956689,52.2933694 L23.2478437,39.209759 L23.2478437,57.4940473 C23.2478437,58.6262795 24.1657157,59.5441327 25.2977898,59.5441327 C26.4299382,59.5441327 27.3477359,58.6262052 27.3477359,57.4940473 L27.3477359,16.0908936 C27.3477359,14.6824283 28.4892868,13.5408083 29.897682,13.5408083 L108.098814,13.5408083 C109.507209,13.5408083 110.64876,14.6824283 110.64876,16.0908936 L110.64876,57.4940473 C110.64876,58.6263771 111.56646,59.5441327 112.698706,59.5441327 C113.830855,59.5441327 114.748652,58.6262052 114.748652,57.4940473 L114.748652,39.209759 L131.586929,52.2933696 L92.9732636,82.2802839 C92.0788542,82.9748566 91.9168882,84.2631587 92.6114689,85.1579271 C93.3059948,86.0523845 94.5941938,86.2143572 95.4888994,85.5197411 L133.649569,55.8863095 L133.649569,130.317694 L133.246218,130.004416 Z" id="Shape" fill-rule="nonzero"></path>
                <path d="M45.3180954,29.75 L91.6819046,29.75 C92.8317005,29.75 93.75,28.9577121 93.75,28 C93.75,27.0422879 92.8317005,26.25 91.6819046,26.25 L45.3180954,26.25 C44.1682995,26.25 43.25,27.0422879 43.25,28 C43.25,28.9577121 44.1682995,29.75 45.3180954,29.75 Z" id="Path"></path>
                <path d="M93.75,41 C93.75,40.0422879 92.8317005,39.25 91.6819046,39.25 L45.3180954,39.25 C44.168397,39.25 43.25,40.0424362 43.25,41 C43.25,41.9577121 44.1682995,42.75 45.3180954,42.75 L91.6819046,42.75 C92.831603,42.75 93.75,41.9575638 93.75,41 Z" id="Path"></path>
                <path d="M94.75,56 C94.75,55.0435348 93.8122161,54.25 92.6364392,54.25 L71.3635608,54.25 C70.1877839,54.25 69.25,55.0435348 69.25,56 C69.25,56.9564652 70.1877839,57.75 71.3635608,57.75 L92.6364392,57.75 C93.8121169,57.75 94.75,56.956317 94.75,56 Z" id="Path"></path>
            </g>
        </g>
    </g>
</svg>