<?xml version="1.0" encoding="UTF-8"?>
<svg width="28px" height="22px" viewBox="0 0 28 22" version="1.1" xmlns="http://www.w3.org/2000/svg" xmlns:xlink="http://www.w3.org/1999/xlink">
    <!-- Generator: sketchtool 52.4 (67378) - http://www.bohemiancoding.com/sketch -->
    <title>506E02F3-5510-48F1-8052-569DF21D0A50</title>
    <desc>Created with sketchtool.</desc>
    <g id="Page-1" stroke="none" stroke-width="1" fill="none" fill-rule="evenodd">
        <g id="contract-copy" transform="translate(-470.000000, -454.000000)" fill="#C9C9C9">
            <g id="ui/drop-files/large" transform="translate(223.000000, 425.000000)">
                <g id="ui/drop-files">
                    <g id="Drop-files">
                        <g id="Icon/gray/upload" transform="translate(245.341857, 24.000000)">
                            <path d="M17.172089,15.0067584 C16.7780087,14.6146636 16.1077094,14.5838566 15.6687534,14.9414104 L11.9189405,17.9992259 C10.8545609,18.845061 12.2919832,20.2518929 13.3563628,19.4072888 L14.6521574,18.3752859 C14.9466532,18.1397859 15.169628,18.2347258 15.1485902,18.581194 L15.1918727,22.9209927 C15.1596196,23.4425337 15.6167916,23.8864259 16.2071763,23.9135399 C16.8003611,23.9406664 17.3052306,23.5387109 17.3360692,23.0196319 L17.2927867,18.6810958 C17.3138244,18.3309188 17.5466144,18.2594251 17.8116574,18.5208079 L18.9770253,19.6662538 C19.934852,20.6045731 21.5321395,19.3370355 20.5743127,18.3987478 L17.172089,15.0067584 Z" id="Fill-1"></path>
                            <polygon id="Fill-2" points="3.33802226 13.5081403 28.4684098 13.5081403 28.4684098 11.6142675 3.33802226 11.6142675"></polygon>
                            <path d="M4.10751091,5.45918076 L9.38166125,5.45918076 C10.0365591,5.45918076 10.8527582,5.7267408 11.3463908,6.10527548 L12.4949214,6.98441125 C12.594488,7.06085742 12.9072033,7.16442702 13.0432305,7.16442702 L27.8155903,7.16442702 C28.8056558,7.16442702 29.610618,7.87093628 29.610618,8.74265438 L29.5965953,25.3462375 C29.5965953,26.2191866 28.7930332,26.9232338 27.8015676,26.9232338 L4.10720216,26.9232338 C3.11713669,26.9232338 2.31217448,26.2179556 2.31217448,25.3474685 L2.31217448,7.03498081 C2.31217448,6.16572474 3.11713669,5.45921548 4.10720216,5.45921548 L4.10751091,5.45918076 Z M4.46651644,7.35292418 L4.46651644,25.0292 L27.4443068,25.0292 L27.4555257,9.05817043 L13.0432485,9.05817043 C12.3869504,9.05817043 11.5721515,8.78937938 11.079919,8.41207572 L9.93138847,7.53293995 C9.83041817,7.45526275 9.51770639,7.35292418 9.3816792,7.35292418 L4.46651644,7.35292418 Z" id="Fill-3"></path>
                        </g>
                    </g>
                </g>
            </g>
        </g>
    </g>
</svg>