<?xml version="1.0" encoding="UTF-8"?>
<svg width="119px" height="43px" viewBox="0 0 119 43" version="1.1" xmlns="http://www.w3.org/2000/svg" xmlns:xlink="http://www.w3.org/1999/xlink">
    <!-- Generator: sketchtool 52.4 (67378) - http://www.bohemiancoding.com/sketch -->
    <title>2578523E-3AFB-4B4A-9771-01E4301920AA</title>
    <desc>Created with sketchtool.</desc>
    <g id="Page-1" stroke="none" stroke-width="1" fill="none" fill-rule="evenodd">
        <g id="Get-registred" transform="translate(-39.000000, -20.000000)">
            <g id="Header" transform="translate(38.000000, 20.000000)">
                <g id="_logo/default">
                    <g id="Group" stroke-width="1" transform="translate(2.135154, 0.000000)">
                        <path d="M2.68052603,19.2340651 C3.83409252,20.9643891 5.83596987,21.7630515 7.76902842,21.7630515 C9.90649923,21.7630515 12.5522752,20.4317246 12.5522752,17.8365728 C12.5522752,12.4123512 0.713398769,15.7727487 0.713398769,6.58846427 C0.713398769,3.82689657 3.08730642,0 8.85513887,0 C11.4675275,0 13.97771,0.532664437 15.7751751,2.69607069 L13.1300805,5.05864131 C12.315157,3.82689657 10.7207414,2.99481725 8.85513887,2.99481725 C5.25952731,2.99481725 4.17341687,5.12480666 4.17341687,6.58846427 C4.17341687,12.5453503 16.013656,8.98512007 16.013656,17.4696559 C16.013656,22.0290496 12.2817696,24.7572004 7.66818505,24.7572004 C4.58087863,24.7572004 1.62916567,23.7259568 0,21.4963852 L2.68052603,19.2340651" id="Fill-1" fill="#000000"></path>
                        <path d="M39.3096962,12.3789344 C39.3096962,7.22137923 35.8154035,2.99481725 30.4266147,2.99481725 C25.0358212,2.99481725 21.5421967,7.22137923 21.5421967,12.3789344 C21.5421967,17.5364896 25.0358212,21.7630515 30.4266147,21.7630515 C35.8154035,21.7630515 39.3096962,17.5364896 39.3096962,12.3789344 Z M18.1488102,12.3789344 C18.1488102,5.39147305 23.23889,0 30.4266147,0 C37.6130029,0 42.7030827,5.39147305 42.7030827,12.3789344 C42.7030827,19.3663957 37.6130029,24.7572004 30.4266147,24.7572004 C23.23889,24.7572004 18.1488102,19.3663957 18.1488102,12.3789344 Z" id="Fill-2" fill="#000000"></path>
                        <path d="M64.0478727,5.6902196 C62.6962258,3.9598956 60.4665514,2.99481725 58.2708039,2.99481725 C52.8981435,2.99481725 49.3521062,7.22137923 49.3521062,12.5787671 C49.3521062,17.5364896 52.6952608,21.7630515 58.2708039,21.7630515 C61.0073459,21.7630515 63.1013128,20.5647236 64.5208133,18.6011501 L67.2573553,20.630889 C66.5469265,21.5959673 63.6753555,24.7572004 58.2029501,24.7572004 C50.6012939,24.7572004 45.9058139,18.5015679 45.9058139,12.5787671 C45.9058139,5.25847402 51.0070593,0 58.371906,0 C61.5135349,0 64.8241196,1.16424272 66.7498092,3.66048071 L64.0478727,5.6902196" id="Fill-3" fill="#D02139"></path>
                        <path d="M84.5185288,16.0943942 L80.1022156,5.22406702 L80.0350167,5.22406702 L75.5515045,16.0943942 L84.5185288,16.0943942 Z M78.7629411,1.07640002 L81.6739984,1.07640002 L91.8116279,24.7572004 L88.064616,24.7572004 L85.689134,18.903844 L74.4138268,18.903844 L72.0719443,24.7572004 L68.3249324,24.7572004 L78.7629411,1.07640002 Z" id="Fill-4" fill="#000000"></path>
                        <polyline id="Fill-5" fill="#000000" points="95.0143591 1.07640002 99.3962756 1.07640002 112.958286 20.5423539 113.026034 20.5423539 113.026034 1.07640002 116.3659 1.07640002 116.3659 24.7572004 112.12297 24.7572004 98.4219732 5.2905748 98.3528291 5.2905748 98.3528291 24.7572004 95.0143591 24.7572004 95.0143591 1.07640002"></polyline>
                    </g>
                    <path d="M9.2879205,40.4892007 L9.2756023,34.1550006 L6.15909847,39.4335007 L5.59246141,39.4335007 L2.47595759,34.1922606 L2.47595759,40.4892007 L1.29341068,40.4892007 L1.29341068,31.7952006 L2.30350283,31.7952006 L5.90041634,37.9058407 L9.44805706,31.7952006 L10.4581492,31.7952006 L10.4704674,40.4892007 L9.2879205,40.4892007 Z M18.7852503,37.2351607 C18.7852503,37.3262411 18.7770383,37.4462999 18.7606139,37.5953407 L13.4637893,37.5953407 C13.5376988,38.1749436 13.7902193,38.6406889 14.2213584,38.9925907 C14.6524974,39.3444925 15.1883336,39.5204407 15.8288831,39.5204407 C16.6090394,39.5204407 17.2372612,39.2554834 17.7135672,38.7255607 L18.3664316,39.4956007 C18.0707934,39.8433625 17.7033042,40.1083198 17.263953,40.2904807 C16.8246018,40.4726416 16.3339319,40.5637207 15.7919285,40.5637207 C15.102106,40.5637207 14.4903083,40.4208922 13.9565171,40.1352307 C13.4227259,39.8495693 13.0100705,39.4500633 12.7185383,38.9367007 C12.4270062,38.4233381 12.2812424,37.8437439 12.2812424,37.1979007 C12.2812424,36.5603375 12.4229002,35.9848832 12.7062201,35.4715206 C12.9895401,34.9581581 13.3796124,34.5586521 13.8764489,34.2729906 C14.3732853,33.9873292 14.9337576,33.8445006 15.5578827,33.8445006 C16.1820078,33.8445006 16.7383742,33.9873292 17.2269984,34.2729906 C17.7156227,34.5586521 18.097483,34.9581581 18.3725907,35.4715206 C18.6476985,35.9848832 18.7852503,36.5727574 18.7852503,37.2351607 Z M15.5578827,34.8505206 C14.9912428,34.8505206 14.516997,35.0243989 14.135131,35.3721606 C13.753265,35.7199224 13.5294866,36.1753178 13.4637893,36.7383607 L17.6519762,36.7383607 C17.5862788,36.1835979 17.3625005,35.7302724 16.9806345,35.3783706 C16.5987685,35.0264689 16.1245226,34.8505206 15.5578827,34.8505206 Z M28.5905351,33.8445006 C29.4117523,33.8445006 30.0625572,34.0846182 30.5429693,34.5648606 C31.0233814,35.045103 31.2635838,35.7571759 31.2635838,36.7011007 L31.2635838,40.4892007 L30.0810369,40.4892007 L30.0810369,36.8377207 C30.0810369,36.2001575 29.9352731,35.7199223 29.6437409,35.3970006 C29.3522088,35.074079 28.9354473,34.9126206 28.393444,34.9126206 C27.7939554,34.9126206 27.3176565,35.1009888 26.9645331,35.4777306 C26.6114097,35.8544725 26.4348506,36.3947371 26.4348506,37.0985407 L26.4348506,40.4892007 L25.2523037,40.4892007 L25.2523037,36.8377207 C25.2523037,36.2001575 25.1065399,35.7199223 24.8150077,35.3970006 C24.5234756,35.074079 24.1067141,34.9126206 23.5647108,34.9126206 C22.9652222,34.9126206 22.4889233,35.1009888 22.1357999,35.4777306 C21.7826765,35.8544725 21.6061174,36.3947371 21.6061174,37.0985407 L21.6061174,40.4892007 L20.4235705,40.4892007 L20.4235705,33.9066006 L21.5568447,33.9066006 L21.5568447,34.8877806 C21.7949977,34.5482989 22.1070555,34.2895515 22.4930276,34.1115306 C22.8789997,33.9335097 23.3183444,33.8445006 23.8110747,33.8445006 C24.3202294,33.8445006 24.7718921,33.9479996 25.1660764,34.1550006 C25.5602606,34.3620017 25.8641065,34.6642186 26.0776229,35.0616606 C26.3239881,34.6807787 26.6668412,34.3827017 27.1061924,34.1674206 C27.5455436,33.9521395 28.0403196,33.8445006 28.5905351,33.8445006 Z M36.905318,33.8445006 C37.5376553,33.8445006 38.1042867,33.9852592 38.6052292,34.2667806 C39.1061717,34.548302 39.4982971,34.9415981 39.781617,35.4466806 C40.064937,35.9517632 40.2065948,36.5354974 40.2065948,37.1979007 C40.2065948,37.860304 40.064937,38.4461082 39.781617,38.9553307 C39.4982971,39.4645533 39.1061717,39.8599193 38.6052292,40.1414407 C38.1042867,40.4229621 37.5376553,40.5637207 36.905318,40.5637207 C36.4207999,40.5637207 35.9773492,40.4685017 35.5749528,40.2780607 C35.1725563,40.0876198 34.8399683,39.8102425 34.5771788,39.4459207 L34.5771788,40.4892007 L33.4439047,40.4892007 L33.4439047,31.2735606 L34.6264516,31.2735606 L34.6264516,34.9002006 C34.8892411,34.5524389 35.2177231,34.2895515 35.6119074,34.1115306 C36.0060916,33.9335097 36.4372242,33.8445006 36.905318,33.8445006 Z M36.8067725,39.5204407 C37.2255933,39.5204407 37.6012945,39.4231517 37.9338875,39.2285707 C38.2664805,39.0339897 38.529266,38.7607525 38.7222521,38.4088507 C38.9152381,38.0569489 39.0117297,37.653303 39.0117297,37.1979007 C39.0117297,36.7424984 38.9152381,36.3388524 38.7222521,35.9869507 C38.529266,35.6350489 38.2664805,35.3638816 37.9338875,35.1734406 C37.6012945,34.9829997 37.2255933,34.8877806 36.8067725,34.8877806 C36.3961639,34.8877806 36.0225156,34.9829997 35.6858165,35.1734406 C35.3491175,35.3638816 35.0863319,35.6350489 34.8974519,35.9869507 C34.708572,36.3388524 34.6141334,36.7424984 34.6141334,37.1979007 C34.6141334,37.653303 34.708572,38.0569489 34.8974519,38.4088507 C35.0863319,38.7607525 35.3491175,39.0339897 35.6858165,39.2285707 C36.0225156,39.4231517 36.3961639,39.5204407 36.8067725,39.5204407 Z M47.7453314,37.2351607 C47.7453314,37.3262411 47.7371193,37.4462999 47.720695,37.5953407 L42.4238703,37.5953407 C42.4977798,38.1749436 42.7503003,38.6406889 43.1814394,38.9925907 C43.6125784,39.3444925 44.1484146,39.5204407 44.7889641,39.5204407 C45.5691205,39.5204407 46.1973422,39.2554834 46.6736482,38.7255607 L47.3265127,39.4956007 C47.0308745,39.8433625 46.6633853,40.1083198 46.224034,40.2904807 C45.7846828,40.4726416 45.2940129,40.5637207 44.7520095,40.5637207 C44.062187,40.5637207 43.4503894,40.4208922 42.9165982,40.1352307 C42.382807,39.8495693 41.9701515,39.4500633 41.6786194,38.9367007 C41.3870872,38.4233381 41.2413234,37.8437439 41.2413234,37.1979007 C41.2413234,36.5603375 41.3829812,35.9848832 41.6663012,35.4715206 C41.9496211,34.9581581 42.3396934,34.5586521 42.8365299,34.2729906 C43.3333663,33.9873292 43.8938387,33.8445006 44.5179638,33.8445006 C45.1420889,33.8445006 45.6984552,33.9873292 46.1870794,34.2729906 C46.6757037,34.5586521 47.057564,34.9581581 47.3326718,35.4715206 C47.6077795,35.9848832 47.7453314,36.5727574 47.7453314,37.2351607 Z M44.5179638,34.8505206 C43.9513239,34.8505206 43.477078,35.0243989 43.095212,35.3721606 C42.713346,35.7199224 42.4895677,36.1753178 42.4238703,36.7383607 L46.6120572,36.7383607 C46.5463599,36.1835979 46.3225815,35.7302724 45.9407155,35.3783706 C45.5588495,35.0264689 45.0846037,34.8505206 44.5179638,34.8505206 Z M50.5169257,35.0119806 C50.72223,34.6310987 51.0260758,34.3413016 51.4284722,34.1425806 C51.8308687,33.9438596 52.3194856,33.8445006 52.8943377,33.8445006 L52.8943377,34.9995606 C52.8286403,34.9912806 52.7383078,34.9871406 52.6233373,34.9871406 C51.9827879,34.9871406 51.4797999,35.1796487 51.1143582,35.5646706 C50.7489166,35.9496926 50.5661985,36.4982371 50.5661985,37.2103207 L50.5661985,40.4892007 L49.3836516,40.4892007 L49.3836516,33.9066006 L50.5169257,33.9066006 L50.5169257,35.0119806 Z M56.3064782,40.5637207 C55.772687,40.5637207 55.259434,40.4912715 54.7667036,40.3463707 C54.2739733,40.20147 53.888007,40.0172418 53.6087931,39.7936807 L54.101521,38.8497607 C54.388947,39.0567617 54.7379591,39.2223601 55.1485677,39.3465607 C55.5591763,39.4707613 55.9738848,39.5328607 56.3927056,39.5328607 C57.4274393,39.5328607 57.9447984,39.2347837 57.9447984,38.6386207 C57.9447984,38.4398997 57.874996,38.2825813 57.7353891,38.1666607 C57.5957822,38.0507401 57.4212761,37.965871 57.2118657,37.9120507 C57.0024553,37.8582304 56.7047685,37.798201 56.3187964,37.7319607 C55.7932174,37.6491603 55.3641378,37.5539412 55.0315449,37.4463007 C54.6989519,37.3386601 54.4135832,37.156502 54.1754302,36.8998207 C53.9372772,36.6431394 53.8182025,36.282963 53.8182025,35.8192806 C53.8182025,35.2231177 54.0645639,34.7449524 54.5572943,34.3847706 C55.0500246,34.0245888 55.7110946,33.8445006 56.540524,33.8445006 C56.9757691,33.8445006 57.4110077,33.8983201 57.8462529,34.0059606 C58.281498,34.1136012 58.6387221,34.2584997 58.917936,34.4406606 L58.4128899,35.3845806 C57.8790987,35.0368189 57.2508769,34.8629406 56.5282058,34.8629406 C56.0272633,34.8629406 55.645403,34.9457398 55.3826135,35.1113406 C55.1198239,35.2769415 54.9884312,35.4963593 54.9884312,35.7696006 C54.9884312,35.9848817 55.0623396,36.15462 55.2101587,36.2788207 C55.3579778,36.4030213 55.5406959,36.4941004 55.7583185,36.5520607 C55.975941,36.610021 56.2818399,36.6762603 56.6760241,36.7507807 C57.2016032,36.8418611 57.6265767,36.9391502 57.9509575,37.0426507 C58.2753383,37.1461512 58.552495,37.3220994 58.7824358,37.5705007 C59.0123766,37.8189019 59.1273453,38.1666585 59.1273453,38.6137807 C59.1273453,39.2099437 58.8748248,39.683969 58.3697762,40.0358707 C57.8647276,40.3877725 57.1769685,40.5637207 56.3064782,40.5637207 Z M64.0915787,33.8445006 C64.9210081,33.8445006 65.5800251,34.0866882 66.0686493,34.5710706 C66.5572736,35.0554531 66.801582,35.765456 66.801582,36.7011007 L66.801582,40.4892007 L65.6190351,40.4892007 L65.6190351,36.8377207 C65.6190351,36.2001575 65.4671122,35.7199223 65.1632618,35.3970006 C64.8594115,35.074079 64.4241729,34.9126206 63.857533,34.9126206 C63.2169835,34.9126206 62.7119425,35.1009888 62.3423947,35.4777306 C61.972847,35.8544725 61.7880759,36.3947371 61.7880759,37.0985407 L61.7880759,40.4892007 L60.605529,40.4892007 L60.605529,31.2735606 L61.7880759,31.2735606 L61.7880759,34.8381006 C62.034441,34.5234591 62.356764,34.2792015 62.7550543,34.1053206 C63.1533447,33.9314397 63.5988484,33.8445006 64.0915787,33.8445006 Z M68.9942211,33.9066006 L70.176768,33.9066006 L70.176768,40.4892007 L68.9942211,40.4892007 L68.9942211,33.9066006 Z M69.5854945,32.6397606 C69.3555537,32.6397606 69.1646236,32.5652413 69.0126984,32.4162006 C68.8607732,32.2671598 68.7848117,32.0850017 68.7848117,31.8697206 C68.7848117,31.6544395 68.8607732,31.4702113 69.0126984,31.3170306 C69.1646236,31.1638498 69.3555537,31.0872606 69.5854945,31.0872606 C69.8154354,31.0872606 70.0063655,31.1597098 70.1582907,31.3046106 C70.3102159,31.4495113 70.3861773,31.6295995 70.3861773,31.8448806 C70.3861773,32.0684417 70.3102159,32.2568098 70.1582907,32.4099906 C70.0063655,32.5631714 69.8154354,32.6397606 69.5854945,32.6397606 Z M75.8924114,33.8445006 C76.5247486,33.8445006 77.09138,33.9852592 77.5923226,34.2667806 C78.0932651,34.548302 78.4853904,34.9415981 78.7687104,35.4466806 C79.0520303,35.9517632 79.1936882,36.5354974 79.1936882,37.1979007 C79.1936882,37.860304 79.0520303,38.4461082 78.7687104,38.9553307 C78.4853904,39.4645533 78.0932651,39.8599193 77.5923226,40.1414407 C77.09138,40.4229621 76.5247486,40.5637207 75.8924114,40.5637207 C75.4243176,40.5637207 74.995238,40.4726416 74.6051598,40.2904807 C74.2150816,40.1083198 73.8845466,39.8433625 73.6135449,39.4956007 L73.6135449,42.8986808 L72.430998,42.8986808 L72.430998,33.9066006 L73.5642722,33.9066006 L73.5642722,34.9498806 C73.8270617,34.5855588 74.1596497,34.3102516 74.5620461,34.1239506 C74.9644426,33.9376497 75.4078932,33.8445006 75.8924114,33.8445006 Z M75.7938658,39.5204407 C76.2126866,39.5204407 76.5883878,39.4231517 76.9209808,39.2285707 C77.2535738,39.0339897 77.5163594,38.7607525 77.7093454,38.4088507 C77.9023315,38.0569489 77.9988231,37.653303 77.9988231,37.1979007 C77.9988231,36.7424984 77.9023315,36.3388524 77.7093454,35.9869507 C77.5163594,35.6350489 77.2535738,35.3638816 76.9209808,35.1734406 C76.5883878,34.9829997 76.2126866,34.8877806 75.7938658,34.8877806 C75.3832572,34.8877806 75.011662,34.9850697 74.679069,35.1796506 C74.346476,35.3742316 74.0836904,35.6453989 73.8907044,35.9931607 C73.6977183,36.3409224 73.6012267,36.7424984 73.6012267,37.1979007 C73.6012267,37.653303 73.6956653,38.0569489 73.8845453,38.4088507 C74.0734252,38.7607525 74.3362108,39.0339897 74.6729099,39.2285707 C75.0096089,39.4231517 75.3832572,39.5204407 75.7938658,39.5204407 Z M87.6809259,31.7952006 C88.7977813,31.7952006 89.6764706,32.0642979 90.31702,32.6025006 C90.9575694,33.1407033 91.2778394,33.8817559 91.2778394,34.8256806 C91.2778394,35.7696054 90.9575694,36.510658 90.31702,37.0488607 C89.6764706,37.5870634 88.7977813,37.8561607 87.6809259,37.8561607 L85.5498778,37.8561607 L85.5498778,40.4892007 L84.3180581,40.4892007 L84.3180581,31.7952006 L87.6809259,31.7952006 Z M87.6439713,36.7756207 C88.4241276,36.7756207 89.0195012,36.6079523 89.4301098,36.2726107 C89.8407184,35.937269 90.0460197,35.4549638 90.0460197,34.8256806 C90.0460197,34.1963975 89.8407184,33.7140923 89.4301098,33.3787506 C89.0195012,33.0434089 88.4241276,32.8757406 87.6439713,32.8757406 L85.5498778,32.8757406 L85.5498778,36.7756207 L87.6439713,36.7756207 Z M95.8355722,40.5637207 C95.1868106,40.5637207 94.6037551,40.4188222 94.0863883,40.1290207 C93.5690214,39.8392193 93.164578,39.4397133 92.8730459,38.9304907 C92.5815137,38.4212682 92.4357499,37.8437439 92.4357499,37.1979007 C92.4357499,36.5520574 92.5815137,35.9745332 92.8730459,35.4653106 C93.164578,34.9560881 93.5690214,34.5586521 94.0863883,34.2729906 C94.6037551,33.9873292 95.1868106,33.8445006 95.8355722,33.8445006 C96.4843338,33.8445006 97.0653363,33.9873292 97.5785971,34.2729906 C98.0918579,34.5586521 98.4942483,34.9560881 98.7857804,35.4653106 C99.0773125,35.9745332 99.2230764,36.5520574 99.2230764,37.1979007 C99.2230764,37.8437439 99.0773125,38.4212682 98.7857804,38.9304907 C98.4942483,39.4397133 98.0918579,39.8392193 97.5785971,40.1290207 C97.0653363,40.4188222 96.4843338,40.5637207 95.8355722,40.5637207 Z M95.8355722,39.5204407 C96.254393,39.5204407 96.6300943,39.4231517 96.9626873,39.2285707 C97.2952802,39.0339897 97.5560128,38.7607525 97.7448928,38.4088507 C97.9337727,38.0569489 98.0282113,37.653303 98.0282113,37.1979007 C98.0282113,36.7424984 97.9337727,36.3388524 97.7448928,35.9869507 C97.5560128,35.6350489 97.2952802,35.3638816 96.9626873,35.1734406 C96.6300943,34.9829997 96.254393,34.8877806 95.8355722,34.8877806 C95.4167514,34.8877806 95.0410502,34.9829997 94.7084572,35.1734406 C94.3758642,35.3638816 94.1130787,35.6350489 93.9200926,35.9869507 C93.7271066,36.3388524 93.630615,36.7424984 93.630615,37.1979007 C93.630615,37.653303 93.7271066,38.0569489 93.9200926,38.4088507 C94.1130787,38.7607525 94.3758642,39.0339897 94.7084572,39.2285707 C95.0410502,39.4231517 95.4167514,39.5204407 95.8355722,39.5204407 Z M101.994671,35.0119806 C102.199975,34.6310987 102.503821,34.3413016 102.906217,34.1425806 C103.308614,33.9438596 103.797231,33.8445006 104.372083,33.8445006 L104.372083,34.9995606 C104.306385,34.9912806 104.216053,34.9871406 104.101082,34.9871406 C103.460533,34.9871406 102.957545,35.1796487 102.592103,35.5646706 C102.226662,35.9496926 102.043943,36.4982371 102.043943,37.2103207 L102.043943,40.4892007 L100.861397,40.4892007 L100.861397,33.9066006 L101.994671,33.9066006 L101.994671,35.0119806 Z M109.58268,40.1041807 C109.410224,40.2532215 109.196711,40.3670703 108.942134,40.4457307 C108.687556,40.5243911 108.424771,40.5637207 108.153769,40.5637207 C107.496795,40.5637207 106.987648,40.3857025 106.626313,40.0296607 C106.264977,39.6736189 106.084312,39.164404 106.084312,38.5020007 L106.084312,34.8877806 L104.975674,34.8877806 L104.975674,33.9066006 L106.084312,33.9066006 L106.084312,32.4658806 L107.266859,32.4658806 L107.266859,33.9066006 L109.139225,33.9066006 L109.139225,34.8877806 L107.266859,34.8877806 L107.266859,38.4523207 C107.266859,38.8083625 107.355139,39.0815998 107.5317,39.2720407 C107.708262,39.4624817 107.960782,39.5577007 108.289269,39.5577007 C108.650605,39.5577007 108.958557,39.4542018 109.213134,39.2472007 L109.58268,40.1041807 Z M113.389003,33.8445006 C114.292342,33.8445006 114.984207,34.0680584 115.464619,34.5151806 C115.945031,34.9623029 116.185234,35.6288362 116.185234,36.5148007 L116.185234,40.4892007 L115.064278,40.4892007 L115.064278,39.6198007 C114.867186,39.9261623 114.585923,40.1600699 114.220481,40.3215307 C113.85504,40.4829915 113.421854,40.5637207 112.920911,40.5637207 C112.190028,40.5637207 111.60492,40.3857025 111.165568,40.0296607 C110.726217,39.6736189 110.506545,39.2058036 110.506545,38.6262007 C110.506545,38.0465978 110.715952,37.5808524 111.134773,37.2289507 C111.553594,36.8770489 112.21877,36.7011007 113.130321,36.7011007 L115.002687,36.7011007 L115.002687,36.4651207 C115.002687,35.9517581 114.85487,35.558462 114.559232,35.2852206 C114.263593,35.0119793 113.828355,34.8753606 113.253503,34.8753606 C112.867531,34.8753606 112.489776,34.93953 112.120229,35.0678706 C111.750681,35.1962113 111.438623,35.3680196 111.184046,35.5833006 L110.691318,34.6890606 C111.028017,34.4158193 111.430407,34.2067513 111.898501,34.0618506 C112.366595,33.9169499 112.863424,33.8445006 113.389003,33.8445006 Z M113.118003,39.6446407 C113.569672,39.6446407 113.959744,39.5432117 114.288231,39.3403507 C114.616718,39.1374897 114.854868,38.8497626 115.002687,38.4771607 L115.002687,37.5580807 L113.179594,37.5580807 C112.177709,37.5580807 111.676774,37.8975573 111.676774,38.5765207 C111.676774,38.9077224 111.80406,39.1685398 112.058638,39.3589807 C112.313215,39.5494217 112.666333,39.6446407 113.118003,39.6446407 Z M118.377873,31.2735606 L119.56042,31.2735606 L119.56042,40.4892007 L118.377873,40.4892007 L118.377873,31.2735606 Z" id="Membership-Portal" fill="#D02139"></path>
                </g>
            </g>
        </g>
    </g>
</svg>